<?xml version="1.0" encoding="utf-8"?>
<!-- Generator: Adobe Illustrator 16.0.0, SVG Export Plug-In . SVG Version: 6.00 Build 0)  -->
<!DOCTYPE svg PUBLIC "-//W3C//DTD SVG 1.1//EN" "http://www.w3.org/Graphics/SVG/1.1/DTD/svg11.dtd">
<svg version="1.1" xmlns="http://www.w3.org/2000/svg" xmlns:xlink="http://www.w3.org/1999/xlink" x="0px" y="0px" width="580px"
	 height="76px" viewBox="0 0 580 76" enable-background="new 0 0 580 76" xml:space="preserve">
<g id="レイヤー_1のコピー" display="none">
	
		<text transform="matrix(1 0 0 1 -313.926 -38.4897)" display="inline" fill="#2B3137" font-family="'ArialMT'" font-size="31.8021">C</text>
	
		<text transform="matrix(1 0 0 1 -290.3284 -38.4897)" display="inline" fill="#2B3137" font-family="'ArialMT'" font-size="31.8021">O</text>
	
		<text transform="matrix(1 0 0 1 -266.2229 -38.4897)" display="inline" fill="#2B3137" font-family="'ArialMT'" font-size="31.8021">F</text>
	
		<text transform="matrix(1 0 0 1 -246.7922 -38.4897)" display="inline" fill="#2B3137" font-family="'ArialMT'" font-size="31.8021">F</text>
	
		<text transform="matrix(1 0 0 1 -227.9973 -38.4897)" display="inline" fill="#2B3137" font-family="'ArialMT'" font-size="31.8021">EE</text>
	
		<text transform="matrix(1 0 0 1 -185.5735 -38.4897)" display="inline" fill="#2B3137" font-family="'ArialMT'" font-size="31.8021"> </text>
	
		<text transform="matrix(1 0 0 1 -175.4617 -38.4897)" display="inline" fill="#2B3137" font-family="'ArialMT'" font-size="31.8021">S</text>
	
		<text transform="matrix(1 0 0 1 -154.8855 -38.4897)" display="inline" fill="#2B3137" font-family="'ArialMT'" font-size="31.8021" letter-spacing="-1">T</text>
	
		<text transform="matrix(1 0 0 1 -137.9988 -38.4897)" display="inline" fill="#2B3137" font-family="'ArialMT'" font-size="31.8021">A</text>
	
		<text transform="matrix(1 0 0 1 -115.0374 -38.4897)" display="inline" fill="#2B3137" font-family="'ArialMT'" font-size="31.8021">N</text>
	
		<text transform="matrix(1 0 0 1 -92.7136 -38.4897)" display="inline" fill="#2B3137" font-family="'ArialMT'" font-size="31.8021">D</text>
	<rect x="0" y="170" display="inline" fill="#231815" width="870" height="100"/>
	<path display="inline" fill="#FFFFFF" d="M168.691-165.776c-1.334-4.778-3.891-13.78-17.668-13.78
		c-7.998,0-19.776,5.334-19.776,27.891c0,14.334,5.664,27.224,19.776,27.224c9.222,0,15.665-5.224,17.668-15.002h16.668
		C182.021-122.109,170.691-110,150.688-110c-21.222,0-36.44-14.332-36.44-41.889c0-27.888,16.109-42.111,36.665-42.111
		c23.891,0,33.554,16.444,34.446,28.224H168.691z"/>
	<path display="inline" fill="#FFFFFF" d="M235.026-194c10.559,0,38.336,4.556,38.336,42c0,37.443-27.777,42-38.336,42
		c-10.551,0-38.331-4.557-38.331-42C196.695-189.444,224.475-194,235.026-194z M235.026-124.111c9.004,0,21.672-5.555,21.672-27.889
		s-12.668-27.889-21.672-27.889c-8.998,0-21.666,5.555-21.666,27.889S226.028-124.111,235.026-124.111z"/>
	<path display="inline" fill="#FFFFFF" d="M301.146-112.109h-16.668v-79.782h56.78v14.113h-40.112v17.998h35.112v14.111h-35.112
		V-112.109L301.146-112.109z"/>
	<path display="inline" fill="#FFFFFF" d="M369.042-112.109h-16.664v-79.782h56.775v14.113h-40.111v17.998h35.113v14.111h-35.113
		V-112.109z"/>
	<path display="inline" fill="#FFFFFF" d="M476.716-177.777H434.38V-161h38.892v14.113H434.38v20.664h44.226v14.113h-60.558v-79.782
		h58.668V-177.777z"/>
	<path display="inline" fill="#FFFFFF" d="M550.833-177.777h-42.334V-161h38.89v14.113h-38.89v20.664h44.22v14.113h-60.556v-79.782
		h58.67V-177.777z"/>
	<g display="inline">
		<g>
			<path d="M52.798,35.022c-0.266,0-0.979,0-1.807,0v-1.389H12.396v12.822c0,6.199,2.682,11.479,6.942,15.369H4.915v0.094
				c0,4.132,3.867,7.479,8.636,7.479h36.608c4.77,0,8.637-3.348,8.637-7.479v-0.094H44.051c2.792-2.577,4.898-5.539,6.023-9.232
				c0.862,0.273,1.777,0.424,2.724,0.424c2.477,0,4.741-1.01,6.362-2.635c1.624-1.621,2.636-3.886,2.634-6.362
				c0.002-2.477-1.01-4.741-2.634-6.362C57.539,36.032,55.275,35.022,52.798,35.022z M55.747,46.966
				c-0.764,0.76-1.79,1.222-2.949,1.222c-0.668,0-1.293-0.159-1.849-0.436c0.026-0.431,0.042-0.861,0.042-1.297v-6.606
				c0.828,0,1.541,0,1.807,0c1.159,0.003,2.185,0.461,2.949,1.222c0.757,0.762,1.219,1.788,1.22,2.947
				C56.966,45.178,56.505,46.206,55.747,46.966z"/>
			<path d="M22.975,26.39c2.706,2.145,5.518,4.159,8.288,6.224c0.133-0.129,0.266-0.258,0.399-0.388
				c-0.321-0.52-0.632-1.046-0.963-1.561c-0.874-1.356-1.858-2.653-2.615-4.073c-1.743-3.273-1.284-5.618,1.548-7.959
				c1.241-1.025,2.675-1.813,3.95-2.8c1.181-0.912,2.361-1.859,3.372-2.948c1.248-1.348,1.092-2.923,0.351-4.522
				C36.411,6.436,34.989,5.147,33.359,5c0.217,0.505,0.426,0.968,0.616,1.439c1.027,2.527,0.541,3.853-1.97,4.997
				c-1.202,0.547-2.532,0.814-3.729,1.37c-2.13,0.989-4.389,1.849-6.256,3.223c-2.619,1.928-2.971,4.953-1.252,7.721
				C21.368,24.718,22.092,25.691,22.975,26.39z"/>
			<path d="M37.816,19.624c-1.138,0.559-2.321,1.042-3.399,1.697c-1.706,1.037-3.074,2.432-2.671,4.621
				c0.466,2.539,2.118,4.288,4.588,5.972c-0.467-1.008-0.728-1.569-0.986-2.13c-1.281-2.792-0.89-4.534,1.518-6.333
				c1.059-0.791,2.227-1.436,3.31-2.197c2.203-1.546,2.431-3.714,0.426-5.904C41.144,17.836,39.545,18.773,37.816,19.624z"/>
		</g>
	</g>
	<text transform="matrix(1 0 0 1 65.9016 64.2686)" display="inline"><tspan x="0" y="0" font-family="'GenEi-M-Gothic-v2-Bold'" font-size="65.3446" letter-spacing="-8">P</tspan><tspan x="34.068" y="0" font-family="'GenEi-M-Gothic-v2-Bold'" font-size="65.3446" letter-spacing="-2">A</tspan><tspan x="83.08" y="0" font-family="'GenEi-M-Gothic-v2-Bold'" font-size="65.3446" letter-spacing="-3">R</tspan><tspan x="125.056" y="0" font-family="'GenEi-M-Gothic-v2-Bold'" font-size="65.3446" letter-spacing="-2">A</tspan><tspan x="174.067" y="0" font-family="'GenEi-M-Gothic-v2-Bold'" font-size="65.3446" letter-spacing="-5">L</tspan><tspan x="208.339" y="0" font-family="'GenEi-M-Gothic-v2-Bold'" font-size="65.3446" letter-spacing="-1">LA</tspan><tspan x="295.543" y="0" font-family="'GenEi-M-Gothic-v2-Bold'" font-size="65.3446" letter-spacing="-2">X</tspan><tspan x="342.321" y="0" font-family="'GenEi-M-Gothic-v2-Bold'" font-size="65.3446">‐</tspan><tspan x="369.633" y="0" font-family="'GenEi-M-Gothic-v2-Bold'" font-size="65.3446" letter-spacing="-1">C</tspan><tspan x="414.128" y="0" font-family="'GenEi-M-Gothic-v2-Bold'" font-size="65.3446" letter-spacing="-3">a</tspan><tspan x="449.596" y="0" font-family="'GenEi-M-Gothic-v2-Bold'" font-size="65.3446" letter-spacing="-3">f</tspan><tspan x="471.392" y="0" font-family="'GenEi-M-Gothic-v2-Bold'" font-size="65.3446">e</tspan></text>
</g>
<g id="レイヤー_1のコピー_2">
	<g>
		<g>
			<path fill="#FFFFFF" d="M52.798,35.022c-0.266,0-0.979,0-1.807,0v-1.389H12.396v12.822c0,6.199,2.682,11.479,6.942,15.369H4.915
				v0.094c0,4.132,3.867,7.479,8.636,7.479h36.608c4.77,0,8.637-3.348,8.637-7.479v-0.094H44.051
				c2.792-2.577,4.898-5.539,6.023-9.232c0.862,0.273,1.777,0.424,2.724,0.424c2.477,0,4.741-1.01,6.362-2.635
				c1.624-1.621,2.636-3.886,2.634-6.362c0.002-2.477-1.01-4.741-2.634-6.362C57.539,36.032,55.275,35.022,52.798,35.022z
				 M55.747,46.966c-0.764,0.76-1.79,1.222-2.949,1.222c-0.668,0-1.293-0.159-1.849-0.436c0.026-0.431,0.042-0.861,0.042-1.297
				v-6.606c0.828,0,1.541,0,1.807,0c1.159,0.003,2.185,0.461,2.949,1.222c0.757,0.762,1.219,1.788,1.22,2.947
				C56.966,45.178,56.505,46.206,55.747,46.966z"/>
			<path fill="#FFFFFF" d="M22.975,26.39c2.706,2.145,5.518,4.159,8.288,6.224c0.133-0.129,0.266-0.258,0.399-0.388
				c-0.321-0.52-0.632-1.046-0.963-1.561c-0.874-1.356-1.858-2.653-2.615-4.073c-1.743-3.273-1.284-5.618,1.548-7.959
				c1.241-1.025,2.675-1.813,3.95-2.8c1.181-0.912,2.361-1.859,3.372-2.948c1.248-1.348,1.092-2.923,0.351-4.522
				C36.411,6.436,34.989,5.147,33.359,5c0.217,0.505,0.426,0.968,0.616,1.439c1.027,2.527,0.541,3.853-1.97,4.997
				c-1.202,0.547-2.532,0.814-3.729,1.37c-2.13,0.989-4.389,1.849-6.256,3.223c-2.619,1.928-2.971,4.953-1.252,7.721
				C21.368,24.718,22.092,25.691,22.975,26.39z"/>
			<path fill="#FFFFFF" d="M37.816,19.624c-1.138,0.559-2.321,1.042-3.399,1.697c-1.706,1.037-3.074,2.432-2.671,4.621
				c0.466,2.539,2.118,4.288,4.588,5.972c-0.467-1.008-0.728-1.569-0.986-2.13c-1.281-2.792-0.89-4.534,1.518-6.333
				c1.059-0.791,2.227-1.436,3.31-2.197c2.203-1.546,2.431-3.714,0.426-5.904C41.144,17.836,39.545,18.773,37.816,19.624z"/>
		</g>
	</g>
	<g>
		<path fill="#FFFFFF" d="M71.198,66.247V14.622h16.336c5.828,0,10.497,1.606,14.007,4.818c3.51,3.212,5.265,7.381,5.265,12.507
			c0,5.127-1.809,9.221-5.424,12.284c-3.616,3.063-8.147,4.594-13.592,4.594h-6.636v17.421H71.198z M81.153,40.785h5.232
			c3.446,0,6.02-0.83,7.722-2.488c1.701-1.659,2.552-3.882,2.552-6.669c0-2.786-0.83-4.966-2.489-6.541
			c-1.659-1.573-4.148-2.361-7.466-2.361h-5.552V40.785z"/>
		<path fill="#FFFFFF" d="M102.076,66.247l17.421-51.625h12.763l17.421,51.625H138.96l-3.574-11.551h-19.335l-3.574,11.551H102.076z
			 M118.603,46.528h14.294l-0.638-2.105c-3.446-11.018-5.488-17.974-6.126-20.867l-0.383-1.531
			c-0.426,2.68-2.574,10.146-6.445,22.398L118.603,46.528z"/>
		<path fill="#FFFFFF" d="M154.278,66.247V14.622h16.208c5.871,0,10.476,1.511,13.815,4.531c3.339,3.021,5.01,7.083,5.01,12.188
			c-0.043,3.532-0.925,6.541-2.648,9.03s-4.095,4.329-7.115,5.52l13.273,20.356h-11.869l-11.678-18.698h-5.041v18.698H154.278z
			 M164.233,39.318h6.253c2.936,0,5.126-0.723,6.573-2.17c1.446-1.446,2.17-3.478,2.17-6.094c0-2.616-0.766-4.636-2.297-6.062
			c-1.532-1.425-3.701-2.138-6.509-2.138h-6.19V39.318z"/>
		<path fill="#FFFFFF" d="M193.063,66.247l17.421-51.625h12.763l17.421,51.625h-10.721l-3.574-11.551h-19.335l-3.574,11.551H193.063
			z M209.591,46.528h14.294l-0.638-2.105c-3.446-11.018-5.488-17.974-6.126-20.867l-0.383-1.531
			c-0.426,2.68-2.574,10.146-6.445,22.398L209.591,46.528z"/>
		<path fill="#FFFFFF" d="M245.265,66.247V14.622h9.954V57.44h22.526v8.807H245.265z"/>
		<path fill="#FFFFFF" d="M279.538,66.247V14.622h9.954V57.44h22.526v8.807H279.538z"/>
		<path fill="#FFFFFF" d="M313.886,66.247l17.421-51.625h12.763l17.421,51.625h-10.72l-3.574-11.551h-19.335l-3.573,11.551H313.886z
			 M330.415,46.528h14.294l-0.639-2.105c-3.445-11.018-5.487-17.974-6.126-20.867l-0.383-1.531
			c-0.426,2.68-2.574,10.146-6.445,22.398L330.415,46.528z"/>
		<path fill="#FFFFFF" d="M363.806,66.247l16.399-26.164l-15.57-25.461h11.551l9.636,16.719l9.444-16.719h12.124l-15.698,25.525
			l16.847,26.1h-11.741l-10.721-17.613l-10.273,17.613H363.806z"/>
		<path fill="#FFFFFF" d="M411.924,50.038v-8.232h19.974v8.232H411.924z"/>
		<path fill="#FFFFFF" d="M446.384,59.61c-5.063-4.807-7.594-11.167-7.594-19.08c0-7.913,2.509-14.326,7.529-19.24
			c5.02-4.914,11.635-7.371,19.846-7.371c4.978,0,9.083,0.958,12.316,2.872v9.7c-3.872-2.297-7.7-3.446-11.486-3.446
			c-5.232,0-9.467,1.574-12.699,4.722c-3.233,3.148-4.85,7.37-4.85,12.667c0,5.296,1.542,9.498,4.627,12.603
			c3.084,3.106,7.051,4.659,11.9,4.659c4.851,0,9.04-1.255,12.571-3.766v9.892c-3.105,1.999-7.297,2.999-12.571,2.999
			C457.975,66.821,451.445,64.417,446.384,59.61z"/>
		<path fill="#FFFFFF" d="M486.219,63.631c-2.127-1.915-3.19-4.616-3.19-8.104c0-3.487,1.17-6.158,3.51-8.009
			c2.339-1.851,6.53-3.435,12.571-4.754l5.615-1.149v-0.638c0-2.042-0.553-3.605-1.659-4.69s-2.957-1.627-5.552-1.627
			c-4.254,0-8.126,1.171-11.613,3.51v-8.806c3.063-1.701,7.284-2.553,12.667-2.553c5.381,0,9.358,1.203,11.933,3.605
			c2.573,2.404,3.86,6.073,3.86,11.008v24.824h-9.316v-4.275c-1.829,3.02-5.104,4.53-9.827,4.53
			C491.345,66.502,488.346,65.545,486.219,63.631z M492.921,55.079c0,2.979,1.659,4.468,4.977,4.468c2.17,0,3.851-0.585,5.042-1.755
			c1.19-1.17,1.786-2.713,1.786-4.627v-4.85l-4.594,1.021c-2.426,0.51-4.234,1.17-5.425,1.978
			C493.515,52.123,492.921,53.379,492.921,55.079z"/>
		<path fill="#FFFFFF" d="M517.795,34.468v-7.083h5.36v-2.106c0-4.424,1.255-7.859,3.766-10.306
			c2.51-2.446,6.083-3.669,10.721-3.669c1.786,0,3.382,0.234,4.785,0.702v7.913c-1.446-0.595-2.851-0.894-4.211-0.894
			c-3.787,0-5.68,2.106-5.68,6.318v2.042h7.977v7.083h-7.977v31.779h-9.381V34.468H517.795z"/>
		<path fill="#FFFFFF" d="M545.494,61.014c-3.553-3.742-5.328-8.625-5.328-14.645s1.712-10.752,5.137-14.199
			c3.424-3.446,7.657-5.168,12.698-5.168c5.042,0,9.03,1.489,11.965,4.467c2.936,2.978,4.403,7.19,4.403,12.635
			c0,2.297-0.17,4.467-0.511,6.51h-24.057c1.403,5.615,5.572,8.423,12.507,8.423c3.488,0,6.785-0.936,9.891-2.808v8.231
			c-3.021,1.445-7.041,2.17-12.061,2.17C553.927,66.63,549.046,64.757,545.494,61.014z M549.482,43.657h15.89v-1.148
			c-0.086-2.425-0.713-4.381-1.883-5.871c-1.171-1.489-2.861-2.234-5.073-2.234c-2.213,0-4.138,0.788-5.775,2.361
			C551.003,38.339,549.95,40.637,549.482,43.657z"/>
	</g>
</g>
</svg>
